# xmcd CD database file
#
# Track frame offsets:
#	150
#	17067
#	31235
#	49170
#	62950
#	75317
#	93415
#	105715
#	127655
#	144417
#
# Disc length: 2120 seconds
#
# Revision: 2
# Processed by: cddbd v1.4PL0 Copyright (c) Steve Scherf et al.
# Submitted via: CDex 1.40Release
#
DISCID=7608460a
DTITLE=Chet Baker - Chet Baker Sings and Plays
DYEAR=1955
DGENRE=Jazz
TTITLE0=Let's get lost
TTITLE1=This is always
TTITLE2=Long ago and far away
TTITLE3=Someone to watch over me
TTITLE4=Just friends
TTITLE5=I wish I knew
TTITLE6=Daybreak
TTITLE7=You don't know what love is
TTITLE8=Grey december
TTITLE9=I remember you
EXTD=YEAR: 1955 ID3G: 8
EXTT0=
EXTT1=
EXTT2=
EXTT3=
EXTT4=
EXTT5=
EXTT6=
EXTT7=
EXTT8=
EXTT9=
PLAYORDER=
